<?xml version="1.0" encoding="UTF-8" standalone="no" ?>
<!DOCTYPE svg PUBLIC "-//W3C//DTD SVG 1.1//EN" "http://www.w3.org/Graphics/SVG/1.1/DTD/svg11.dtd">
<svg xmlns="http://www.w3.org/2000/svg" xmlns:xlink="http://www.w3.org/1999/xlink" version="1.1" width="16" height="16" viewBox="0 0 16 16" xml:space="preserve">
<desc>Created with Fabric.js 4.6.0</desc>
<defs>
</defs>
<g transform="matrix(1 0 0 1 8.01 3.86)" id="RTKiPVSG-8gGuoaarakbl"  >
<path style="stroke: rgb(0,0,0); stroke-width: 1; stroke-dasharray: none; stroke-linecap: butt; stroke-dashoffset: 0; stroke-linejoin: miter; stroke-miterlimit: 4; fill: rgb(255,255,255); fill-opacity: 0; fill-rule: nonzero; opacity: 1;" vector-effect="non-scaling-stroke"  transform=" translate(0, 0)" d="M 0 0" stroke-linecap="round" />
</g>
<g transform="matrix(1 0 0 1 7.87 8.75)" id="VRhTibJkIVHzhGMPkl8ug"  >
<path style="stroke: rgb(0,0,0); stroke-width: 1; stroke-dasharray: none; stroke-linecap: butt; stroke-dashoffset: 0; stroke-linejoin: miter; stroke-miterlimit: 4; fill: rgb(236,63,191); fill-rule: nonzero; opacity: 1;" vector-effect="non-scaling-stroke"  transform=" translate(0, 0)" d="M 0.67872 -0.19032 C 7.49162 -0.24192999999999998 5.99493 10.61755 6.71751 4.7336800000000006 C 7.44009 -1.1501899999999994 7.38816 -9.098980000000001 2.0204199999999997 -5.640909999999999 C -1.3786200000000002 -3.4511399999999988 -5.6412700000000005 -2.061889999999999 -6.89207 -2.767669999999999 C -7.61653 -3.176449999999999 -5.522 -3.659789999999999 -5.48414 0.201890000000001 C -5.38091 10.730920000000001 -6.13417 -0.138709999999999 0.6787299999999998 -0.190319999999999 z" stroke-linecap="round" />
</g>
<g transform="matrix(0.99 -0.4 0.4 0.99 5.42 3.64)" id="c-dhmZdYOlI4lHrH6rowz"  >
<path style="stroke: rgb(0,0,0); stroke-width: 1; stroke-dasharray: none; stroke-linecap: butt; stroke-dashoffset: 0; stroke-linejoin: miter; stroke-miterlimit: 4; fill: rgb(15,172,84); fill-rule: nonzero; opacity: 1;" vector-effect="non-scaling-stroke"  transform=" translate(0, 0)" d="M 1.29906 2.07806 C 2.17648 -2.67033 -1.4364199999999998 -3.34129 -1.4364199999999998 -3.34129 C -1.4364199999999998 -3.34129 0.42164000000000024 6.82645 1.29906 2.07806 z" stroke-linecap="round" />
</g>
<g transform="matrix(0.22 0 0 0.22 12.97 4.94)" id="GcS2e3WHXoJ78kWjcRUAW"  >
<path style="stroke: rgb(0,75,234); stroke-width: 0; stroke-dasharray: none; stroke-linecap: butt; stroke-dashoffset: 0; stroke-linejoin: miter; stroke-miterlimit: 4; fill: rgb(0,0,0); fill-rule: nonzero; opacity: 1;" vector-effect="non-scaling-stroke"  transform=" translate(0, 0)" d="M 0 -2.58065 C 1.42452 -2.58065 2.58065 -1.4245199999999998 2.58065 0 C 2.58065 1.42452 1.4245199999999998 2.58065 0 2.58065 C -1.42452 2.58065 -2.58065 1.4245199999999998 -2.58065 0 C -2.58065 -1.42452 -1.4245199999999998 -2.58065 0 -2.58065 z" stroke-linecap="round" />
</g>
<g transform="matrix(0.25 0 0 0.25 11.66 4.21)" id="B5arf3O-qQOHdabtChI7V"  >
<path style="stroke: rgb(136,7,103); stroke-width: 0; stroke-dasharray: none; stroke-linecap: butt; stroke-dashoffset: 0; stroke-linejoin: miter; stroke-miterlimit: 4; fill: rgb(0,0,0); fill-rule: nonzero; opacity: 1;" vector-effect="non-scaling-stroke"  transform=" translate(0, 0)" d="M 0 -2.58065 C 1.42452 -2.58065 2.58065 -1.4245199999999998 2.58065 0 C 2.58065 1.42452 1.4245199999999998 2.58065 0 2.58065 C -1.42452 2.58065 -2.58065 1.4245199999999998 -2.58065 0 C -2.58065 -1.42452 -1.4245199999999998 -2.58065 0 -2.58065 z" stroke-linecap="round" />
</g>
</svg>