<?xml version="1.0" encoding="UTF-8" standalone="no" ?>
<!DOCTYPE svg PUBLIC "-//W3C//DTD SVG 1.1//EN" "http://www.w3.org/Graphics/SVG/1.1/DTD/svg11.dtd">
<svg xmlns="http://www.w3.org/2000/svg" xmlns:xlink="http://www.w3.org/1999/xlink" version="1.1" width="382" height="258" viewBox="0 0 382 258" xml:space="preserve">
<desc>Created with Fabric.js 4.6.0</desc>
<defs>
</defs>
<g transform="matrix(1.24 0 0 1.24 186.84 132.07)" id="ZiR00tpSzNIEvsG_r8fic"  >
<linearGradient id="SVGID_9946" gradientUnits="userSpaceOnUse" gradientTransform="matrix(1 0 0 1 -147.58 -93.55)"  x1="-49.54433527302186" y1="136.1212664064046" x2="310.15933245095897" y2="73.52330848874625">
<stop offset="0%" style="stop-color:#00FF00;stop-opacity: 1"/>
<stop offset="64.54090296738524%" style="stop-color:#7E7E7E;stop-opacity: 0"/>
<stop offset="100%" style="stop-color:#9300FF;stop-opacity: 1"/>
</linearGradient>
<path style="stroke: rgb(29,149,64); stroke-opacity: 0; stroke-width: 1; stroke-dasharray: none; stroke-linecap: round; stroke-dashoffset: 0; stroke-linejoin: round; stroke-miterlimit: 10; fill: url(#SVGID_9946); fill-rule: nonzero; opacity: 1;" vector-effect="non-scaling-stroke"  transform=" translate(0, 0)" d="M -147.58115 -75.80745 C -147.58048 -75.80678 -147.31133 -75.53763000000001 -146.77370000000002 -75 C -146.23607 -74.46236999999999 -145.42961000000003 -73.92473 -144.35435 -73.3871 C -143.27908000000002 -72.84947 -142.20381 -71.50538 -141.12854000000002 -69.35484000000001 C -140.05327000000003 -67.2043 -138.70919 -64.78495000000001 -137.09628 -62.09678000000001 C -135.48338 -59.40861000000001 -134.13929000000002 -56.98925000000001 -133.06402 -54.83872000000001 C -131.98875 -52.68818000000001 -130.64467 -50.00001000000001 -129.03176 -46.77420000000001 C -127.41886 -43.548390000000005 -126.07476999999999 -40.322590000000005 -124.9995 -37.09678000000001 C -123.92423 -33.87097000000001 -123.11778 -30.64517000000001 -122.58015 -27.41936000000001 C -122.04252 -24.193550000000013 -121.23606000000001 -21.77420000000001 -120.16080000000001 -20.16130000000001 C -119.08553 -18.54840000000001 -118.27908000000001 -15.860220000000012 -117.74145000000001 -12.096780000000011 C -117.20382000000001 -8.33334000000001 -116.39736000000002 -4.569900000000011 -115.32210000000002 -0.806460000000012 C -114.24683000000002 2.956979999999988 -113.17156000000001 6.4515999999999885 -112.09629000000002 9.677409999999988 C -111.02102000000002 12.903219999999987 -110.21457000000002 15.860209999999988 -109.67694000000003 18.548379999999987 C -109.13931000000002 21.236549999999987 -108.60167000000003 23.924719999999986 -108.06404000000003 26.61289999999999 C -107.52641000000003 29.30106999999999 -107.25759000000004 31.989239999999988 -107.25759000000004 34.67741999999999 C -107.25759000000004 37.36558999999999 -106.98877000000003 39.24730999999999 -106.45114000000004 40.32257999999999 C -105.91351000000003 44.62365999999999 -105.37587000000003 47.58063999999999 -104.83824000000004 49.19354999999999 C -102.15007000000004 61.559139999999985 -100.53716000000004 68.01074999999999 -99.99953000000004 68.54838999999998 C -98.81523000000004 74.99623999999999 -98.22308000000004 77.95134999999999 -98.22308000000004 77.41371999999998 C -93.49340000000004 70.96586999999998 -90.85974000000004 67.47311999999998 -90.32211000000004 66.93548999999999 C -87.63394000000004 62.09677999999999 -86.02103000000004 59.13978999999999 -85.48340000000003 58.06451999999999 C -84.94577000000004 56.989249999999984 -84.13931000000004 55.37634999999999 -83.06405000000004 53.22580999999999 C -81.98878000000003 51.07526999999999 -81.45115000000004 49.462369999999986 -81.45115000000004 48.38709999999999 C -81.45115000000004 47.311829999999986 -81.18233000000004 45.96774999999999 -80.64470000000004 44.35483999999999 C -80.10707000000005 42.741939999999985 -79.56943000000004 40.86021999999999 -79.03180000000005 38.70967999999999 C -78.49417000000005 36.55913999999999 -77.68771000000005 34.67741999999999 -76.61245000000005 33.064519999999995 C -75.53718000000005 31.451619999999995 -74.73073000000005 29.569899999999993 -74.19310000000006 27.419359999999994 C -72.58020000000006 20.967749999999995 -71.50493000000006 16.666669999999996 -70.96729000000006 14.516129999999993 C -70.42966000000007 12.365589999999994 -69.89202000000006 10.483869999999992 -69.35439000000007 8.870969999999993 C -68.81676000000007 7.258069999999993 -68.27912000000006 5.913979999999993 -67.74149000000007 4.838709999999993 C -67.20386000000008 3.763439999999993 -66.66622000000007 2.4193599999999926 -66.12859000000007 0.8064499999999928 C -65.59096000000008 -0.8064500000000072 -64.78450000000008 -2.4193600000000073 -63.70924000000007 -4.032260000000007 C -62.63397000000007 -5.645160000000007 -61.82752000000007 -6.989250000000007 -61.28989000000007 -8.064520000000007 C -60.75226000000007 -9.139790000000007 -60.21462000000007 -10.215060000000006 -59.67699000000007 -11.290330000000008 C -59.13936000000007 -12.365600000000008 -58.601720000000064 -13.440870000000007 -58.064090000000064 -14.516140000000007 C -57.526460000000064 -15.591410000000007 -56.72000000000006 -16.666680000000007 -55.64474000000006 -17.741950000000006 C -54.56947000000006 -18.817220000000006 -53.76302000000006 -19.892490000000006 -53.22539000000006 -20.967760000000006 C -52.68776000000006 -22.043030000000005 -52.15012000000006 -23.118300000000005 -51.61249000000006 -24.193570000000005 C -51.07486000000006 -25.268840000000004 -50.26840000000006 -26.075290000000006 -49.19314000000006 -26.612920000000006 C -48.11787000000005 -27.150550000000006 -47.311420000000055 -27.688190000000006 -46.773790000000055 -28.225820000000006 C -46.236160000000055 -28.763450000000006 -45.69852000000005 -29.569910000000007 -45.16089000000005 -30.645170000000007 C -44.62326000000005 -31.720440000000007 -43.81680000000005 -32.52689000000001 -42.74154000000005 -33.06452000000001 C -41.66627000000005 -33.60215000000001 -40.85982000000005 -34.13979000000001 -40.32219000000005 -34.67742000000001 C -39.78456000000005 -35.21505000000001 -38.97810000000005 -36.02151000000001 -37.90284000000005 -37.096770000000014 C -36.827570000000044 -38.17204000000002 -36.021120000000046 -38.70967000000002 -35.483490000000046 -38.70967000000002 C -34.945860000000046 -38.70967000000002 -34.139400000000045 -38.978490000000015 -33.064140000000044 -39.516120000000015 C -31.988870000000045 -40.053750000000015 -31.182420000000043 -40.59139000000002 -30.644790000000043 -41.12902000000002 C -30.107160000000043 -41.66665000000002 -29.569520000000043 -42.20429000000002 -29.031890000000043 -42.74192000000002 C -28.494260000000043 -43.27955000000002 -27.687800000000042 -43.54837000000002 -26.612540000000042 -43.54837000000002 C -25.537270000000042 -43.54837000000002 -24.462000000000042 -43.81719000000002 -23.386730000000043 -44.35482000000002 C -22.311460000000043 -44.89245000000002 -21.50501000000004 -45.161270000000016 -20.96738000000004 -45.161270000000016 C -20.42975000000004 -45.161270000000016 -19.62329000000004 -45.161270000000016 -18.54803000000004 -45.161270000000016 C -17.47276000000004 -45.161270000000016 -16.39749000000004 -45.161270000000016 -15.32222000000004 -45.161270000000016 C -14.24695000000004 -45.161270000000016 -13.440500000000041 -45.161270000000016 -12.902870000000041 -45.161270000000016 C -12.36524000000004 -45.161270000000016 -11.558780000000041 -45.161270000000016 -10.483520000000041 -45.161270000000016 C -9.408250000000042 -45.161270000000016 -8.332980000000042 -45.161270000000016 -7.257710000000041 -45.161270000000016 C -6.1824400000000415 -45.161270000000016 -5.375990000000041 -45.161270000000016 -4.838360000000041 -45.161270000000016 C -4.300730000000041 -45.161270000000016 -3.763090000000041 -45.161270000000016 -3.225460000000041 -45.161270000000016 C -2.687830000000041 -45.161270000000016 -2.150190000000041 -45.161270000000016 -1.6125600000000408 -45.161270000000016 C -1.0749300000000408 -45.161270000000016 -0.5372900000000409 -45.161270000000016 0.00033999999995915076 -45.161270000000016 C 0.5379699999999592 -45.161270000000016 1.3444299999999592 -44.623640000000016 2.4196899999999593 -43.54837000000001 C 3.494959999999959 -42.47310000000001 4.30140999999996 -41.66665000000001 4.83903999999996 -41.12902000000001 C 5.37666999999996 -40.59139000000001 5.64548999999996 -39.78493000000001 5.64548999999996 -38.70967000000001 C 5.64548999999996 -37.63440000000001 5.9143099999999595 -35.75268000000001 6.45193999999996 -33.06451000000001 C 6.98956999999996 -30.376340000000013 7.2583899999999595 -28.494620000000012 7.2583899999999595 -27.419350000000012 C 7.2583899999999595 -26.344080000000012 7.2583899999999595 -25.00000000000001 7.2583899999999595 -23.38709000000001 C 7.2583899999999595 -21.77419000000001 7.2583899999999595 -19.89247000000001 7.2583899999999595 -17.74193000000001 C 7.2583899999999595 -15.591390000000011 7.2583899999999595 -13.440850000000012 7.2583899999999595 -11.290320000000012 C 7.2583899999999595 -9.139780000000012 6.98956999999996 -6.720430000000012 6.45193999999996 -4.0322600000000115 C 5.9143099999999595 -1.3440900000000116 5.10784999999996 1.3440799999999884 4.03258999999996 4.032259999999988 C 2.95731999999996 6.720429999999988 1.88204999999996 9.677419999999987 0.8067799999999599 12.903229999999988 C -0.2684900000000401 16.12903999999999 -1.6125700000000402 19.35483999999999 -3.22548000000004 22.580649999999988 C -4.83838000000004 25.806459999999987 -6.182470000000039 29.032259999999987 -7.25774000000004 32.25806999999999 C -8.33301000000004 35.48387999999999 -9.40828000000004 38.17204999999999 -10.48355000000004 40.32258999999999 C -11.55882000000004 42.47312999999999 -12.36527000000004 44.35484999999999 -12.90290000000004 45.96774999999999 C -13.44053000000004 47.58064999999999 -13.97817000000004 49.19355999999999 -14.51580000000004 50.80645999999999 C -15.05343000000004 52.41935999999999 -15.59107000000004 54.03226999999999 -16.12870000000004 55.645169999999986 C -16.66633000000004 57.25806999999999 -16.935150000000043 58.602159999999984 -16.935150000000043 59.67742999999999 C -16.935150000000043 60.75269999999999 -17.203970000000044 61.827969999999986 -17.741600000000044 62.90323999999999 C -18.279230000000044 63.97850999999999 -18.548050000000046 64.78495999999998 -18.548050000000046 65.32258999999999 C -18.548050000000046 65.86022 -18.548050000000046 66.39786 -18.548050000000046 66.93548999999999 C -18.548050000000046 67.47312 -18.548050000000046 68.01075999999999 -18.548050000000046 68.54838999999998 C -18.548050000000046 69.08601999999999 -18.279230000000044 69.35483999999998 -17.741600000000044 69.35483999999998 C -17.203970000000044 69.35483999999998 -16.666330000000045 69.35483999999998 -16.128700000000045 69.35483999999998 C -15.591070000000045 69.35483999999998 -14.515800000000045 69.35483999999998 -12.902890000000045 69.35483999999998 C -11.289990000000046 69.35483999999998 -10.214720000000046 69.08601999999998 -9.677080000000046 68.54838999999998 C -9.139450000000046 68.01075999999998 -8.064180000000047 67.47311999999998 -6.451270000000046 66.93548999999999 C -4.8383700000000465 66.39785999999998 -3.225460000000046 65.5914 -1.6125600000000464 64.51614 C 0.00033999999995359964 63.44086999999999 1.6132499999999537 62.09678999999999 3.2261499999999534 60.48387999999999 C 4.839049999999953 58.87097999999999 6.720769999999954 56.989259999999994 8.871309999999953 54.838719999999995 C 11.021849999999953 52.688179999999996 13.172389999999954 50.268829999999994 15.322919999999954 47.580659999999995 C 17.473459999999953 44.892489999999995 19.355179999999955 41.9355 20.968079999999954 38.709689999999995 C 22.580979999999954 35.48387999999999 24.193889999999953 32.25807999999999 25.806789999999953 29.032269999999997 C 27.419689999999953 25.806459999999998 28.494959999999953 22.849469999999997 29.032599999999952 20.161299999999997 C 29.570229999999952 17.473129999999998 30.107869999999952 14.516139999999996 30.645499999999952 11.290329999999997 C 31.183129999999952 8.064519999999998 31.720769999999952 4.838719999999998 32.25839999999995 1.6129099999999976 C 32.79602999999995 -1.6129000000000024 33.333669999999955 -4.838700000000002 33.871299999999955 -8.064510000000002 C 34.408929999999955 -11.290320000000001 34.67774999999995 -14.51612 34.67774999999995 -17.741930000000004 C 34.67774999999995 -20.967740000000003 34.67774999999995 -23.655910000000002 34.67774999999995 -25.806450000000005 C 34.67774999999995 -27.956990000000005 34.67774999999995 -30.107530000000004 34.67774999999995 -32.25806000000001 C 34.67774999999995 -34.40860000000001 34.67774999999995 -36.29032000000001 34.67774999999995 -37.903220000000005 C 34.67774999999995 -39.51612000000001 34.408929999999955 -41.66666000000001 33.871299999999955 -44.35483000000001 C 33.333669999999955 -47.043000000000006 32.79602999999995 -49.462360000000004 32.25839999999995 -51.61289000000001 C 31.720769999999952 -53.76343000000001 31.183129999999952 -55.64515000000001 30.645499999999952 -57.258050000000004 C 30.107869999999952 -58.87095000000001 29.30140999999995 -60.48386000000001 28.22614999999995 -62.09676 C 27.15087999999995 -63.70966000000001 26.07560999999995 -65.32257 25.00033999999995 -66.93547000000001 C 23.925069999999952 -68.54837 22.04334999999995 -70.43009 19.35517999999995 -72.58063000000001 C 16.66700999999995 -74.73117000000002 15.054099999999952 -76.34407000000002 14.516469999999952 -77.41934000000002 C 13.978839999999952 -78.49461000000002 12.634749999999952 -79.56988000000003 10.484209999999951 -80.64515000000002 C 8.333669999999952 -81.72042000000002 5.914319999999951 -82.79569000000002 3.226149999999951 -83.87096000000001 C 0.5379799999999508 -84.94623000000001 -1.881380000000049 -86.02150000000002 -4.03191000000005 -87.09677 C -6.182450000000049 -88.17204000000001 -8.60180000000005 -89.24731000000001 -11.28997000000005 -90.32258 C -13.97814000000005 -91.39785 -17.20395000000005 -92.2043 -20.96739000000005 -92.74193 C -24.73083000000005 -93.27956 -28.49427000000005 -93.54838 -32.25771000000005 -93.54838 C -36.021150000000056 -93.54838 -39.78459000000005 -93.54838 -43.548030000000054 -93.54838 C -47.31147000000006 -93.54838 -50.53728000000005 -93.54838 -53.22545000000005 -93.54838 C -55.91362000000005 -93.54838 -58.06416000000005 -93.54838 -59.677060000000054 -93.54838 C -61.28996000000006 -93.54838 -63.17168000000005 -93.54838 -65.32222000000006 -93.54838 C -67.47276000000006 -93.54838 -69.35448000000005 -93.01075 -70.96738000000006 -91.93548 C -72.58028000000006 -90.86021 -74.19319000000006 -90.05376 -75.80609000000007 -89.51613 C -77.41899000000006 -88.9785 -78.76308000000007 -88.44086 -79.83835000000006 -87.90323000000001 C -80.91362000000007 -87.3656 -81.72007000000006 -87.09678000000001 -82.25770000000006 -87.09678000000001 C -82.79533000000006 -87.09678000000001 -83.33297000000006 -86.82796 -83.87060000000005 -86.29033000000001 C -84.40823000000006 -85.7527 -84.94587000000006 -85.21506000000001 -85.48350000000005 -84.67743000000002 C -86.02113000000006 -84.13980000000001 -86.02113000000006 -83.87098000000002 -85.48350000000005 -83.87098000000002 C -84.94587000000004 -83.87098000000002 -83.87060000000005 -83.87098000000002 -82.25769000000005 -83.87098000000002 C -80.64479000000006 -83.87098000000002 -77.95661000000005 -83.87098000000002 -74.19317000000005 -83.87098000000002 C -70.42973000000005 -83.87098000000002 -66.12865000000005 -83.60216000000001 -61.28994000000005 -83.06453000000002 C -56.45123000000005 -82.52690000000001 -50.80607000000005 -81.72044000000002 -44.35446000000005 -80.64518000000002 C -37.90285000000005 -79.56991000000002 -31.18242000000005 -78.49464000000002 -24.193170000000052 -77.41937000000003 C -17.203920000000053 -76.34410000000003 -9.945860000000051 -75.26883000000002 -2.418980000000051 -74.19356000000003 C 5.107899999999949 -73.11829000000003 12.63477999999995 -71.77421000000004 20.161669999999948 -70.16130000000004 C 27.68854999999995 -68.54840000000004 34.67779999999995 -67.20431000000004 41.12940999999995 -66.12904000000005 C 47.58101999999995 -65.05377000000004 53.49499999999995 -63.709690000000045 58.87134999999995 -62.096780000000045 C 64.24768999999995 -60.48388000000004 69.89285999999996 -58.87097000000004 75.80682999999995 -57.258070000000046 C 81.72080999999994 -55.64517000000004 87.09714999999994 -54.03226000000004 91.93585999999995 -52.41936000000005 C 96.77456999999995 -50.806460000000044 101.07563999999995 -49.193550000000045 104.83908999999994 -47.58065000000005 C 108.60252999999994 -45.967750000000045 112.36596999999995 -44.08603000000005 116.12940999999994 -41.93549000000005 C 119.89284999999994 -39.78495000000005 122.84983999999994 -37.90323000000005 125.00037999999994 -36.290330000000054 C 127.15091999999994 -34.67743000000005 129.30145999999993 -33.33334000000006 131.45198999999994 -32.25807000000005 C 133.60252999999994 -31.182800000000054 135.21542999999994 -29.838720000000052 136.29069999999993 -28.225810000000052 C 137.36596999999992 -26.612910000000053 138.44123999999994 -25.000000000000053 139.51650999999993 -23.387100000000054 C 140.59177999999991 -21.774200000000054 141.66704999999993 -20.161290000000054 142.74231999999992 -18.548390000000055 C 143.8175899999999 -16.935490000000055 144.62403999999992 -15.322580000000055 145.16166999999993 -13.709680000000056 C 145.69929999999994 -12.096780000000056 146.23693999999992 -10.215060000000056 146.77456999999993 -8.064520000000055 C 147.31219999999993 -5.9139800000000555 147.58101999999994 -4.032260000000055 147.58101999999994 -2.4193600000000552 C 147.58101999999994 -0.8064600000000552 147.58101999999994 1.6128999999999447 147.58101999999994 4.838699999999945 C 147.58101999999994 8.064509999999945 146.77456999999993 12.365579999999945 145.16166999999993 17.741929999999947 C 143.54876999999993 23.118269999999946 142.20467999999994 26.612899999999946 141.12940999999992 28.225799999999946 C 140.05413999999993 29.838699999999946 138.4412399999999 31.989239999999945 136.29069999999993 34.677409999999945 C 134.14015999999992 37.365579999999945 131.98961999999992 40.053749999999944 129.83908999999994 42.74192999999995 C 127.68854999999994 45.430099999999946 125.26919999999994 48.387089999999944 122.58102999999994 51.61289999999995 C 119.89285999999994 54.83870999999995 117.47349999999994 57.79569999999995 115.32296999999994 60.483869999999946 C 113.17242999999993 63.172039999999946 110.75307999999994 65.86020999999995 108.06490999999994 68.54838999999994 C 105.37673999999994 71.23655999999994 102.95737999999994 73.65591999999994 100.80684999999994 75.80644999999994 C 98.65630999999993 77.95698999999995 96.77458999999995 80.10752999999994 95.16168999999994 82.25805999999994 C 93.54878999999994 84.40859999999995 92.20469999999993 85.75267999999994 91.12942999999994 86.29031999999994 C 90.05415999999994 86.82794999999993 88.97888999999994 87.63440999999993 87.90361999999995 88.70966999999993 C 86.82834999999994 89.78493999999993 85.75307999999994 90.59138999999993 84.67780999999995 91.12901999999993 C 83.60253999999995 91.66664999999992 82.79608999999995 92.20428999999993 82.25845999999996 92.74191999999992 C 81.72082999999995 93.27954999999992 81.18318999999995 93.54836999999992 80.64555999999996 93.54836999999992 C 80.10792999999995 93.54836999999992 79.57028999999996 93.54836999999992 79.03265999999996 93.54836999999992 C 78.49502999999996 93.54836999999992 77.95738999999996 93.27954999999992 77.41975999999997 92.74191999999992 C 76.88212999999996 92.20428999999993 76.07566999999997 90.86019999999992 75.00040999999997 88.70965999999993 C 73.92513999999997 86.55911999999992 72.84986999999997 84.13976999999993 71.77459999999998 81.45159999999993 C 70.69932999999997 78.76342999999993 69.89287999999998 76.07525999999993 69.35524999999998 73.38707999999993 C 68.81761999999998 70.69890999999993 68.54879999999999 67.74191999999992 68.54879999999999 64.51610999999993 C 68.54879999999999 61.290299999999924 68.54879999999999 57.795679999999926 68.54879999999999 54.03223999999993 C 68.54879999999999 50.26879999999993 68.54879999999999 46.77417999999993 68.54879999999999 43.548369999999935 C 68.54879999999999 40.32255999999993 68.81761999999999 38.172029999999936 69.35524999999998 37.09675999999993 C 69.89287999999999 36.02148999999993 70.69933999999998 34.40858999999993 71.77459999999998 32.25804999999993 C 72.84986999999998 30.107509999999934 74.19394999999997 27.688159999999932 75.80685999999997 24.999989999999933 L 78.22720999999997 20.966729999999934" stroke-linecap="round" />
</g>
</svg>